# xmcd CD database file generated by Grip 3.3.1
# 
# Track frame offsets:
#       150
#       16151
#       33280
#       49328
#       67186
#       84277
#       101977
#       117689
#       135110
#       151397
# 
# Disc length: 2278 seconds
# 
# Revision: 0
# Processed by: cddbd v1.5.2PL0 Copyright (c) Steve Scherf et al.
# Submitted via: Grip 3.3.1
# 
DISCID=8008e40a
DTITLE=Ana Stanić - U ogledalu
DYEAR=2004
DGENRE=Rock
TTITLE0=Veliko A
TTITLE1=Trag ljubomore
TTITLE2=Preživeću
TTITLE3=Pogrešan
TTITLE4=Srce me laže
TTITLE5=Fališ mi sve vreme
TTITLE6=Reč za utehu
TTITLE7=Obična ljubav
TTITLE8=Nađi me
TTITLE9=Tu nema reči
EXTD=
EXTT0=
EXTT1=
EXTT2=
EXTT3=
EXTT4=
EXTT5=
EXTT6=
EXTT7=
EXTT8=
EXTT9=
PLAYORDER=
